<?xml version="1.0" standalone="no"?><!DOCTYPE svg PUBLIC "-//W3C//DTD SVG 1.1//EN" "http://www.w3.org/Graphics/SVG/1.1/DTD/svg11.dtd"><svg t="1537343726485" class="icon" style="" viewBox="0 0 1024 1024" version="1.1" xmlns="http://www.w3.org/2000/svg" p-id="6534" xmlns:xlink="http://www.w3.org/1999/xlink" width="200" height="200"><defs><style type="text/css"></style></defs><path d="M512 512.002m-511.998 0a511.998 511.998 0 1 0 1023.996 0 511.998 511.998 0 1 0-1023.996 0Z" fill="#CDCCCA" p-id="6535"></path><path d="M512 512.002m-407.00441 0a407.00441 407.00441 0 1 0 814.00882 0 407.00441 407.00441 0 1 0-814.00882 0Z" fill="#E8E9EC" p-id="6536"></path><path d="M733.235136 144.675435a15.995938 15.995938 0 0 0-20.55792 9.449963 291.098863 291.098863 0 0 1-4.647982 11.757954l-109.553572-40.549842-113.125558-41.873836a289.852868 289.852868 0 0 1 4.127984-11.949953 15.999938 15.999938 0 0 0-9.453963-20.55792 15.995938 15.995938 0 0 0-20.55792 9.447963c-20.347921 54.975785-22.835911 105.01159-7.60397 152.957403 10.723958 33.755868 28.963887 63.107753 48.239811 91.003644-74.449709 19.357924-148.101421 46.377819-188.389264 155.225394-40.285843 108.841575-1.977992 177.303307 41.929837 240.47106-32.791872 8.621966-65.745743 19.023926-95.865626 37.663853-42.779833 26.471897-73.465713 66.069742-93.813633 121.045527a15.995938 15.995938 0 0 0 9.449963 20.55792 15.999938 15.999938 0 0 0 20.557919-9.449963 293.818852 293.818852 0 0 1 4.601982-11.643954l113.129558 41.875836 109.557572 40.549842a298.586834 298.586834 0 0 1-4.087984 11.831953 15.999938 15.999938 0 0 0 30.007883 11.109957c20.351921-54.979785 22.837911-105.01159 7.60597-152.957403-10.725958-33.759868-28.963887-63.113753-48.241811-91.003644 74.453709-19.359924 148.103421-46.377819 188.389264-155.225394 40.289843-108.847575 1.975992-177.307307-41.929836-240.47106 32.791872-8.619966 65.747743-19.023926 95.867625-37.663853 42.777833-26.477897 73.465713-66.069742 93.815634-121.045527a15.993938 15.993938 0 0 0-9.451963-20.55592z m-141.701447-0.585998l108.039578 39.987844c-7.919969 15.40194-16.753935 28.475889-26.351897 39.663845l-97.773618-36.187859-101.347604-37.511853c0-14.741942 1.805993-30.413881 5.823977-47.265815l111.609564 41.313838z m-86.103663 109.619572l40.043843 14.819942 36.469858 13.499947c-15.759938 5.393979-32.077875 9.753962-48.66381 13.953946-9.853962-13.987945-19.403924-27.917891-27.849891-42.273835z m64.309748 285.454885l-109.445572-40.507842-113.015559-41.831836c6.797973-15.713939 14.487943-29.221886 22.923911-40.933841l106.181585 39.301847 102.609599 37.979852c-1.221995 14.375944-4.183984 29.637884-9.253964 45.99182z m-27.557892 60.541763l-104.91359-38.831848-108.487576-40.155843c1.961992-14.171945 5.601978-29.197886 11.229956-45.259823l113.343557 41.955836 109.773571 40.627841c-6.187976 15.853938-13.207948 29.627884-20.945918 41.663837zM519.819969 332.350702c14.161945 20.053922 27.761892 39.945844 38.40785 61.061761l-51.871797-19.199925-55.445783-20.52392c21.833915-9.095964 45.103824-15.33794 68.90973-21.337916z m-93.771633 33.463869l73.365713 27.155894 69.791728 25.831899c5.929977 16.575935 9.707962 34.133867 10.349959 53.247792l-96.227624-35.617861-99.79961-36.937856c12.929949-14.089945 27.229894-24.959903 42.519834-33.679868z m-83.599674 252.035016l64.847747 23.999906 61.271761 22.679911c-25.435901 12.389952-53.201792 19.929922-81.737681 27.121894-16.975934-24.035906-33.139871-47.837813-44.381827-73.801711z m30.92188 110.171569c9.893961 14.037945 19.479924 28.025891 27.95389 42.443834l-36.617857-13.553947-40.191843-14.875942c15.819938-5.423979 32.201874-9.799962 48.85581-14.013945z m-76.405702 24.999903c0.399998 0.209999 0.791997 0.435998 1.225995 0.595997l59.571767 22.049914 57.397776 21.245917c7.839969 17.273933 13.597947 35.487861 16.065938 55.363784l-89.553651-33.143871-93.125636-34.471865c14.867942-13.523947 31.155878-23.621908 48.417811-31.639876z m21.681915 128.331498L207.021191 840.036719c7.909969-15.40594 16.733935-28.483889 26.319898-39.675845l101.389603 37.527853 97.817618 36.207859c-0.008 14.737942-1.823993 30.405881-5.851977 47.253815l-108.049578-39.997844z m172.651326-229.733102l-77.063699-28.523889-80.633685-29.847883c-4.583982-16.119937-7.041972-33.24187-6.543975-51.839798l103.267597 38.221851 99.693611 36.897856c-11.733954 14.441944-24.741903 25.837899-38.719849 35.091863z m118.403537-380.644513l-57.285776-21.203918-60.855762-22.523912c-7.859969-17.285932-13.633947-35.503861-16.121937-55.385783l93.063636 34.443865 89.489651 33.125871c-14.827942 13.473947-31.075879 23.543908-48.289812 31.543877z" fill="#CDCCCA" p-id="6537"></path><path d="M232.089093 897.976492a15.999938 15.999938 0 0 1-9.451963-20.561919c20.347921-54.975785 51.037801-94.569631 93.813634-121.045528 37.433854-23.16391 79.24569-33.611869 119.679532-43.721829 76.7257-19.175925 149.197417-37.287854 187.467268-140.69145 38.27385-103.403596-4.937981-164.335358-50.689802-228.843106-24.111906-33.995867-49.041808-69.14973-62.373756-111.105566-15.229941-47.949813-12.74395-97.979617 7.60597-152.959403a15.999938 15.999938 0 1 1 30.007883 11.109957c-39.575845 106.923582 4.351983 168.86734 50.857801 234.443084 48.54181 68.445733 98.737614 139.219456 54.601787 258.46299-44.135828 119.241534-128.313499 140.281452-209.719181 160.629373-77.995695 19.491924-151.665408 37.905852-191.243253 144.833434a15.999938 15.999938 0 0 1-20.55592 9.449963z" fill="#E65439" p-id="6538"></path><path d="M485.298104 991.700126a16.003937 16.003937 0 0 1-9.451963-20.56392c39.575845-106.921582-4.351983-168.86334-50.859801-234.443084-48.54181-68.441733-98.735614-139.215456-54.599787-258.46099 44.135828-119.245534 128.315499-140.285452 209.717181-160.627373 77.997695-19.495924 151.669408-37.909852 191.245253-144.835434a15.999938 15.999938 0 0 1 20.55792-9.447963 15.995938 15.995938 0 0 1 9.451963 20.55792c-20.349921 54.977785-51.037801 94.575631-93.813634 121.047527-37.433854 23.16791-79.24569 33.615869-119.679532 43.721829-76.7257 19.175925-149.197417 37.291854-187.469268 140.69545s4.937981 164.331358 50.689802 228.843107c24.111906 33.995867 49.041808 69.15173 62.373756 111.105566 15.229941 47.945813 12.74595 97.979617-7.60597 152.957402a15.999938 15.999938 0 0 1-20.55592 9.449963zM529.535932 96.745622a9.999961 9.999961 0 0 0-6.943973 18.753927l127.617501 47.233815 6.939973-18.753926-127.613501-47.233816zM520.209968 164.039359a9.999961 9.999961 0 0 0-6.943973 18.753927l113.909555 42.163835 6.943973-18.757926-113.909555-42.159836z" fill="#2A81C2" p-id="6539"></path><path d="M538.353897 241.495057a9.999961 9.999961 0 0 0-6.945973 18.757926l72.741716 26.919895 6.941973-18.751927-72.737716-26.925894z" fill="#2A81C2" p-id="6540"></path><path d="M479.804126 361.314589a9.999961 9.999961 0 0 0-6.943973 18.753926l85.225667 31.545877 6.943973-18.757927-85.225667-31.541876zM422.826348 410.966395a10.001961 10.001961 0 0 0-6.941973 18.757926l119.173535 44.109828 6.943973-18.753927-119.175535-44.113827zM391.356471 470.064164a9.999961 9.999961 0 0 0-6.943973 18.757927l127.617502 47.233815 6.941973-18.757927-127.615502-47.233815zM368.326561 532.283921a9.999961 9.999961 0 1 0-6.945973 18.757926l127.617502 47.233816 6.941973-18.753927-127.613502-47.237815zM380.390514 607.493627c-5.17798-1.913993-10.931957 0.729997-12.84995 5.909977a9.999961 9.999961 0 0 0 5.905977 12.84795l92.521639 34.245866 6.943973-18.757927-92.521639-34.245866z" fill="#E65439" p-id="6541"></path><path d="M363.808579 753.509057a9.999961 9.999961 0 0 0-6.943973 18.757926l59.571767 22.045914 6.943973-18.753927-59.571767-22.049913zM290.416866 797.086886a9.999961 9.999961 0 0 0-6.939973 18.757927l109.93357 40.691841 6.941973-18.757927-109.93557-40.691841zM249.707025 852.762669a9.999961 9.999961 0 0 0-6.943973 18.757927l127.615501 47.235815 6.943973-18.753927-127.615501-47.239815z" fill="#2A81C2" p-id="6542"></path><path d="M787.098925 202.741208a10.001961 10.001961 0 0 0-5.905977-12.85195L657.149433 143.979438l-6.939973 18.753926 124.039516 45.913821a9.999961 9.999961 0 0 0 12.849949-5.905977zM750.363069 259.886985a9.999961 9.999961 0 0 0-5.907977-12.84795l-110.333569-40.83984-6.943973 18.757926 110.335569 40.839841a10.007961 10.007961 0 0 0 12.84995-5.909977zM686.16332 306.870801a9.999961 9.999961 0 0 0-5.907977-12.84995l-69.16373-25.5979-6.941973 18.751927 69.16373 25.6019a9.999961 9.999961 0 0 0 12.84995-5.905977z" fill="#E65439" p-id="6543"></path><path d="M649.391463 434.748302a10.003961 10.003961 0 0 0-5.909977-12.85195l-78.451693-29.039887-6.943973 18.757927 78.453694 29.039887a9.999961 9.999961 0 0 0 12.851949-5.905977zM663.509408 510.716005a9.995961 9.995961 0 0 0-5.905977-12.84795l-115.601548-42.789833-6.943973 18.753927 115.601548 42.789833a9.999961 9.999961 0 0 0 12.84995-5.905977zM648.919465 576.05975a9.997961 9.997961 0 0 0-5.905977-12.84795l-124.041515-45.913821-6.941973 18.757927 124.041515 45.909821a9.995961 9.995961 0 0 0 12.84795-5.905977zM625.887555 638.283507a9.999961 9.999961 0 0 0-5.905977-12.85195l-124.041515-45.909821-6.941973 18.753927 124.041515 45.915821a9.999961 9.999961 0 0 0 12.84795-5.907977zM567.767782 687.513314a10.003961 10.003961 0 0 0-5.907977-12.849949l-88.947652-32.921872-6.943973 18.757927 88.947652 32.921871a10.003961 10.003961 0 0 0 12.85195-5.907977z" fill="#2A81C2" p-id="6544"></path><path d="M488.85809 810.456834a10.001961 10.001961 0 0 0-5.905977-12.85195l-59.569767-22.045914-6.943973 18.753927 59.571768 22.049914a9.995961 9.995961 0 0 0 12.847949-5.905977zM512.619998 889.996523a10.001961 10.001961 0 0 0-5.905977-12.851949l-106.363585-39.367847-6.941973 18.757927 106.361585 39.367846A9.999961 9.999961 0 0 0 512.619998 889.996523zM507.268018 958.762255a9.999961 9.999961 0 0 0-5.905976-12.85195l-124.041516-45.909821-6.943973 18.753927 124.041516 45.913821a10.001961 10.001961 0 0 0 12.849949-5.905977z" fill="#E65439" p-id="6545"></path></svg>